# xmcd
# 
# Track frame offsets:
#     150
#     25454
#     49111
#     77164
#     102274
#     121038
#     144440
#     161663
#     191889
#     211315
#     239097
#     255591
# 
# Disc length: 3710
# 
# Revision: 0
# Processed by: cddbd v1.5.2PL0 Copyright (c) Steve Scherf et al.
# Submitted via: fre:ac v1.0.27
# 
DISCID=a80e7c0c
DTITLE=Ecuador Manta - Ritmo, Raices
DYEAR=2005
DGENRE=Folk/Rock
TTITLE0=Chiman
TTITLE1=Angustia
TTITLE2=Mosaico de cumbias
TTITLE3=Ponchito
TTITLE4=Cuidado guagua
TTITLE5=Mensajero
TTITLE6=Ukjumanta
TTITLE7=De los Andres
TTITLE8=San Juanito de mi tierra
TTITLE9=Mosiaco de cumbias 3
TTITLE10=Sin palabras
TTITLE11=San Juanito irlandes
EXTD=
EXTT0=
EXTT1=
EXTT2=
EXTT3=
EXTT4=
EXTT5=
EXTT6=
EXTT7=
EXTT8=
EXTT9=
EXTT10=
EXTT11=
PLAYORDER=
